<svg width="160" height="160" viewBox="0 0 160 160" fill="none" xmlns="http://www.w3.org/2000/svg">
<path d="M78.8462 49.0869L98.6924 83.4615L78.8462 117.836L39.1538 117.836L19.3076 83.4615L39.1538 49.0869L78.8462 49.0869Z" stroke="#FEBA12" stroke-width="9.19298"/>
<path d="M67.9712 67.923L76.9424 83.4615L67.9712 99.0001L50.0288 99.0001L41.0576 83.4615L50.0288 67.923L67.9712 67.923Z" stroke="#FEBA12" stroke-width="6.89474"/>
<path d="M130.856 26.8483L141.558 45.3846L130.856 63.921L109.452 63.921L98.7499 45.3846L109.452 26.8483L130.856 26.8483Z" stroke="#FEBA12" stroke-width="6.89474"/>
<path d="M129.385 45.3846L124.769 53.3787L115.538 53.3787L110.923 45.3846L115.538 37.3905L124.769 37.3905L129.385 45.3846Z" fill="#FEBA12"/>
<path d="M129.385 122.692L120.731 137.681L103.423 137.681L94.7692 122.692L103.423 107.703L120.731 107.703L129.385 122.692Z" fill="#FEBA12"/>
</svg>
